<!-- icon666.com - MILLIONS vector ICONS FREE --><svg viewBox="0 0 512 512" xmlns="http://www.w3.org/2000/svg"><path d="m256 181c-41.355469 0-75 33.644531-75 75s33.644531 75 75 75 75-33.644531 75-75-33.644531-75-75-75zm0 120c-24.8125 0-45-20.1875-45-45s20.1875-45 45-45 45 20.1875 45 45-20.1875 45-45 45zm0 0"></path><path d="m256 241c-8.269531 0-15 6.730469-15 15s6.730469 15 15 15 15-6.730469 15-15-6.730469-15-15-15zm0 0"></path><path d="m421.226562 239.9375-31.058593-2.609375-2.394531-10.769531c-3.394532-15.257813-9.378907-29.695313-17.785157-42.910156l-5.921875-9.308594 20.125-23.8125c-6.828125-8.292969-14.425781-15.890625-22.71875-22.71875l-23.8125 20.121094-9.308594-5.917969c-13.210937-8.40625-27.648437-14.390625-42.910156-17.785157l-10.769531-2.394531-2.609375-31.054687c-10.679688-1.027344-21.445312-1.027344-32.125 0l-2.609375 31.054687-10.769531 2.394531c-15.261719 3.394532-29.699219 9.378907-42.914063 17.785157l-9.304687 5.917969-23.8125-20.121094c-8.292969 6.828125-15.890625 14.425781-22.71875 22.71875l20.121094 23.8125-5.917969 9.308594c-8.410157 13.214843-14.390625 27.652343-17.785157 42.910156l-2.394531 10.769531-31.058593 2.609375c-1.039063 10.691406-1.039063 21.433594 0 32.125l31.058593 2.613281 2.394531 10.765625c3.394532 15.257813 9.375 29.695313 17.785157 42.910156l5.917969 9.308594-20.121094 23.8125c6.828125 8.292969 14.425781 15.890625 22.71875 22.71875l23.8125-20.121094 9.304687 5.921876c13.214844 8.40625 27.652344 14.390624 42.914063 17.78125l10.769531 2.394531 2.609375 31.054687c10.679688 1.03125 21.445312 1.03125 32.125 0l2.609375-31.054687 10.769531-2.394531c15.257813-3.394532 29.699219-9.375 42.910156-17.78125l9.308594-5.921876 23.8125 20.121094c8.292969-6.828125 15.890625-14.425781 22.71875-22.71875l-20.125-23.8125 5.921875-9.308594c8.40625-13.214843 14.390625-27.652343 17.785157-42.910156l2.394531-10.765625 31.058593-2.613281c1.035157-10.691406 1.035157-21.433594 0-32.125zm-165.226562 121.0625c-57.898438 0-105-47.101562-105-105s47.101562-105 105-105 105 47.101562 105 105-47.101562 105-105 105zm0 0"></path><path d="m437.019531 74.980469c-48.351562-48.351563-112.640625-74.980469-181.019531-74.980469s-132.667969 26.628906-181.019531 74.980469c-48.351563 48.351562-74.980469 112.640625-74.980469 181.019531 0 45.105469 11.835938 89.230469 34.285156 128.039062l-34.285156 127.960938 127.960938-34.285156c38.808593 22.449218 82.933593 34.285156 128.039062 34.285156 68.378906 0 132.667969-26.628906 181.019531-74.980469 48.351563-48.351562 74.980469-112.640625 74.980469-181.019531s-26.628906-132.667969-74.980469-181.019531zm-14.601562 285.253906-6.769531 9.488281c-12.6875 17.785156-28.140626 33.234375-45.925782 45.925782l-9.488281 6.769531-25.386719-21.449219c-10.210937 5.566406-20.945312 10.019531-32.09375 13.300781l-2.78125 33.109375-11.5 1.921875c-10.695312 1.789063-21.621094 2.695313-32.472656 2.695313s-21.777344-.90625-32.472656-2.695313l-11.5-1.921875-2.78125-33.109375c-11.144532-3.28125-21.882813-7.730469-32.09375-13.300781l-25.386719 21.449219-9.488281-6.769531c-17.785156-12.691407-33.234375-28.140626-45.925782-45.925782l-6.769531-9.488281 21.449219-25.386719c-5.566406-10.210937-10.019531-20.949218-13.300781-32.09375l-33.109375-2.785156-1.921875-11.496094c-3.601563-21.546875-3.601563-43.398437 0-64.945312l1.921875-11.5 33.109375-2.78125c3.285156-11.148438 7.734375-21.882813 13.300781-32.09375l-21.449219-25.386719 6.769531-9.488281c12.6875-17.785156 28.140626-33.234375 45.925782-45.925782l9.488281-6.769531 25.386719 21.449219c10.210937-5.570312 20.945312-10.019531 32.09375-13.300781l2.78125-33.113281 11.5-1.921876c21.386718-3.574218 43.558594-3.574218 64.945312 0l11.5 1.921876 2.78125 33.113281c11.144532 3.28125 21.882813 7.730469 32.09375 13.300781l25.386719-21.449219 9.488281 6.769531c17.785156 12.6875 33.234375 28.140626 45.925782 45.925782l6.769531 9.488281-21.449219 25.386719c5.566406 10.210937 10.019531 20.945312 13.300781 32.09375l33.109375 2.78125 1.921875 11.5c3.601563 21.546875 3.601563 43.398437 0 64.945312l-1.921875 11.496094-33.109375 2.785156c-3.285156 11.144532-7.734375 21.882813-13.300781 32.09375zm0 0"></path></svg>